<?xml version="1.0" ?><svg width="72px" height="72px" viewBox="0 0 72 72" xmlns="http://www.w3.org/2000/svg"><g fill="none" fill-rule="evenodd"><path d="M36,72 L36,72 C55.882251,72 72,55.882251 72,36 L72,36 C72,16.117749 55.882251,-3.65231026e-15 36,0 L36,0 C16.117749,3.65231026e-15 -2.4348735e-15,16.117749 0,36 L0,36 C2.4348735e-15,55.882251 16.117749,72 36,72 Z" fill="#007FFF"/><path d="M36,12 C22.7451429,12 12,21.9491852 12,34.2222222 C12,41.2155556 15.4899876,47.4534815 20.9440994,51.526963 L20.9440994,60 L29.1158758,55.5151111 C31.2967453,56.1186667 33.6071553,56.4444444 36,56.4444444 C49.2548571,56.4444444 60,46.4952593 60,34.2222222 C60,21.9491852 49.2548571,12 36,12 L36,12 Z M38.3850932,41.9259259 L32.2732919,35.4074074 L20.3478261,41.9259259 L33.4658385,28 L39.7267081,34.5185185 L51.5031056,28 L38.3850932,41.9259259 L38.3850932,41.9259259 Z" fill="#FFF"/></g></svg>