<?xml version="1.0" encoding="iso-8859-1"?>
<!-- Generator: Adobe Illustrator 19.0.0, SVG Export Plug-In . SVG Version: 6.00 Build 0)  -->
<svg version="1.1" id="Layer_1" xmlns="http://www.w3.org/2000/svg" xmlns:xlink="http://www.w3.org/1999/xlink" x="0px" y="0px"
	 viewBox="0 0 512.003 512.003" style="enable-background:new 0 0 512.003 512.003;" xml:space="preserve">
<g>
	<g>
		<path d="M194.008,194.485c-1.227,4.205-2.393,8.515-3.464,12.815l6.375,1.589c1.05-4.215,2.193-8.442,3.396-12.562
			L194.008,194.485z"/>
	</g>
</g>
<g>
	<g>
		<path d="M202.473,169.328c-1.575,4.119-3.086,8.322-4.489,12.494l6.228,2.094c1.374-4.086,2.854-8.206,4.397-12.243
			L202.473,169.328z"/>
	</g>
</g>
<g>
	<g>
		<path d="M212.999,144.947c-1.906,3.941-3.763,8.006-5.521,12.08l6.033,2.603c1.721-3.987,3.538-7.965,5.403-11.824
			L212.999,144.947z"/>
	</g>
</g>
<g>
	<g>
		<path d="M225.582,121.557c-2.247,3.77-4.848,8.398-6.548,11.559l5.787,3.112c1.167-2.171,4.021-7.307,6.404-11.306
			L225.582,121.557z"/>
	</g>
</g>
<g>
	<g>
		<path d="M261.967,55.63c3.114,1.988,3.301,2.566,14.65,15.76h14.034c1.388-5.703,3.762-11.022,6.944-15.76H261.967z"/>
	</g>
</g>
<g>
	<g>
		<path d="M501.166,0.631h-337.92c-5.984,0-10.835,4.851-10.835,10.835v226.435c0,5.984,4.851,10.835,10.835,10.835h19.733
			c-0.43,3.654-0.812,7.316-1.108,10.914l6.549,0.537c0.308-3.774,0.71-7.618,1.171-11.451h49.733l0.109-21.669h-46.489
			c0.347-1.834,0.704-3.667,1.081-5.489l-6.433-1.333c-0.469,2.263-0.914,4.543-1.337,6.822h-12.175V22.3h316.25v53.847
			c-1.723-1.385-3.66-2.38-5.698-2.979l-3.695-17.592c-1.117-5.324-6.338-8.733-11.664-7.615c-3.964,0.832-6.862,3.939-7.625,7.669
			h-82.132c3.182,4.737,5.556,10.058,6.944,15.76h77.669l1.691,8.052l-47.42,43.353c-13.985,0-109.796,0-124.433,0
			c-21.634,0-39.324,17.6-39.432,39.236l-0.615,122.418c-0.046,9.201,7.374,16.699,16.579,16.746c0.003,0,0.007,0,0.01,0
			c0.026,0,0.05,0,0.076,0c9.163,0,16.615-7.405,16.66-16.579l0.615-122.418c0.01-1.924,1.574-3.476,3.497-3.47
			c1.923,0.006,3.477,1.565,3.477,3.488c-0.012,109.426-0.363,98.277-0.363,280.096c0,11.043,8.953,19.995,19.996,19.995
			s19.996-8.953,19.996-19.995V282.482h8.634v159.829c0,11.043,8.953,19.995,19.996,19.995c11.044,0,19.996-8.953,19.996-19.995
			l-0.013-286.192c25.342,0,19.522,0,41.794,0c4.161,0,8.172-1.556,11.243-4.364c6.552-5.99,47.677-43.586,54.219-49.566v124.876
			h-92.459v21.669h103.295c5.984,0,10.835-4.851,10.835-10.835V11.466C512,5.482,507.15,0.631,501.166,0.631z"/>
	</g>
</g>
<g>
	<g>
		<path d="M338.555,48.513c-19.179,0-34.536,15.589-34.536,34.536c0,9.824,4.108,18.682,10.693,24.972c5.979,0,41.826,0,47.683,0
			c6.757-6.453,10.695-15.351,10.695-24.972C373.091,63.976,357.629,48.513,338.555,48.513z"/>
	</g>
</g>
<g>
	<g>
		<path d="M81.358,293.808c-18.501,0-33.362,15.016-33.362,33.363c0,18.552,15.066,33.362,33.362,33.362
			c18.384,0,33.362-14.926,33.362-33.362C114.72,308.745,99.783,293.808,81.358,293.808z"/>
	</g>
</g>
<g>
	<g>
		<path d="M106.102,418.633H50.729c-15.537,0-28.134,12.595-28.134,28.134v64.272h113.478v-62.435
			C136.073,432.052,122.654,418.633,106.102,418.633z"/>
	</g>
</g>
<g>
	<g>
		<path d="M187.511,286.157c-0.2-0.046-0.4-0.068-0.6-0.105l0.73-0.041c-0.001-0.02-0.109-2.012-0.109-5.6
			c0-2.294,0.042-4.734,0.128-7.254l-6.566-0.223c-0.088,2.593-0.132,5.108-0.132,7.476c0,3.245,0.083,5.226,0.11,5.792
			c-5.113,1.219-9.353,5.217-10.594,10.687l-10.24,45.143c-23.245,17.004-18.443,13.492-39.826,29.135
			c-4.846,0-85.044-0.234-90.094,0.848C13.211,375.682,0.281,390.9,0.189,409.07L0,511.373h10.55v-0.334v-64.272
			c0-22.265,18.173-40.179,40.178-40.179h54.393c17.931,0,23.103,6.311,23.103,6.311v-12.17l53.123-38.861
			c2.772-2.029,4.719-4.991,5.478-8.34l11.418-50.337C199.983,295.521,195.179,287.895,187.511,286.157z"/>
	</g>
</g>
<g>
	<g>
		<path d="M271.191,86.911L255.38,68.53c-0.916-1.065-2.252-1.678-3.657-1.678h-14.464c-1.611,0-3.103,0.851-3.924,2.239
			c-1.549,2.619,0.033,4.706,1.065,6.581c0.746,1.357,0.806,2.988,0.16,4.396c-0.646,1.408-1.921,2.427-3.436,2.747l-7.181,1.515
			c-1.794,0.379-3.186,1.795-3.534,3.595c-0.661,3.422,2.168,4.805,3.937,5.989c2.115,1.415,2.791,4.215,1.555,6.44l-3.151,5.673
			c-1.12,2.015-0.558,4.55,1.308,5.904l15.245,11.054c2.191,1.589,5.301,0.934,6.647-1.452l7.984-14.164l6.352,4.201
			c2.582,1.708,6.085,0.396,6.908-2.59l4.933-17.884C272.534,89.631,272.182,88.062,271.191,86.911z"/>
	</g>
</g>
<g>
</g>
<g>
</g>
<g>
</g>
<g>
</g>
<g>
</g>
<g>
</g>
<g>
</g>
<g>
</g>
<g>
</g>
<g>
</g>
<g>
</g>
<g>
</g>
<g>
</g>
<g>
</g>
<g>
</g>
</svg>
