<?xml version="1.0" encoding="iso-8859-1"?>
<!-- Generator: Adobe Illustrator 19.0.0, SVG Export Plug-In . SVG Version: 6.00 Build 0)  -->
<svg version="1.1" id="Layer_1" xmlns="http://www.w3.org/2000/svg" xmlns:xlink="http://www.w3.org/1999/xlink" x="0px" y="0px"
	 viewBox="0 0 508 508" style="enable-background:new 0 0 508 508;" xml:space="preserve">
<circle style="fill:#324A5E;" cx="254" cy="254" r="254"/>
<path style="fill:#E6E9EE;" d="M143.3,226.3l32.8-12.7c6.5-2.5,9-10.5,5.1-16.3L134.7,129c-3.4-4.9-10.1-6.3-15.1-2.9
	c-2.6,1.8-5.2,3.6-7.6,5.5c-42.5,32.2-51.1,92.7-21.1,136.7L165,377.4c30,44,89.4,58.2,134.9,30.5c2.6-1.6,5.3-3.3,7.9-5.1
	c4.9-3.4,6.2-10.1,2.8-15.1l-46.4-68.3c-4-5.8-12.3-6.4-17-1.3l-23.8,25.8c-7.1,7.7-19.6,6.8-25.5-1.9l-62.2-91.4
	C129.8,242.1,133.5,230.1,143.3,226.3z"/>
<g>
	<path style="fill:#CED5E0;" d="M247.2,318.3l-11.9,12.9L291,413c5.5-2.9,11.2-6.3,16.8-10.1l0.1-0.1c4.9-3.4,6.1-10.1,2.8-15.1
		l-46.4-68.2C260.3,313.7,252,313.1,247.2,318.3z"/>
	<path style="fill:#CED5E0;" d="M119.7,126.1l-0.1,0.1c-5.7,3.9-10.9,7.8-15.6,11.9l55.7,81.9l16.4-6.3c6.5-2.5,9-10.5,5.1-16.3
		l-46.4-68.3C131.3,124.2,124.6,122.8,119.7,126.1z"/>
</g>
<path style="fill:#FFFFFF;" d="M385.4,122h-165c-5.9,0-10.7,4.8-10.7,10.7V231c0,5.9,4.8,10.7,10.7,10.7h13.7L212.3,283l68.2-41.2
	h104.9c5.9,0,10.7-4.8,10.7-10.7v-98.4C396.1,126.7,391.3,122,385.4,122z"/>
<g>
	<circle style="fill:#FF7058;" cx="354.8" cy="180.3" r="14.2"/>
	<circle style="fill:#FF7058;" cx="302.9" cy="180.3" r="14.2"/>
	<circle style="fill:#FF7058;" cx="250.9" cy="180.3" r="14.2"/>
</g>
<g>
</g>
<g>
</g>
<g>
</g>
<g>
</g>
<g>
</g>
<g>
</g>
<g>
</g>
<g>
</g>
<g>
</g>
<g>
</g>
<g>
</g>
<g>
</g>
<g>
</g>
<g>
</g>
<g>
</g>
</svg>
