<?xml version="1.0" encoding="iso-8859-1"?>
<!-- Generator: Adobe Illustrator 19.0.0, SVG Export Plug-In . SVG Version: 6.00 Build 0)  -->
<svg version="1.1" id="Layer_1" xmlns="http://www.w3.org/2000/svg" xmlns:xlink="http://www.w3.org/1999/xlink" x="0px" y="0px"
	 viewBox="0 0 512 512" style="enable-background:new 0 0 512 512;" xml:space="preserve">
<path style="fill:#2D8B99;" d="M512,486.4c0,14.136-11.464,25.6-25.6,25.6H25.6C11.464,512,0,500.536,0,486.4V40.96
	c0-14.136,11.464-25.6,25.6-25.6h460.8c14.136,0,25.6,11.464,25.6,25.6V486.4z"/>
<path style="fill:#39AEC0;" d="M512,471.04c0,14.136-11.464,25.6-25.6,25.6H25.6c-14.136,0-25.6-11.464-25.6-25.6V25.6
	C0,11.464,11.464,0,25.6,0h460.8C500.536,0,512,11.464,512,25.6V471.04z"/>
<path style="fill:#339EAE;" d="M512,205.665l-0.026,0.087c-0.778-1.393-122.245-123.448-123.003-124.749
	c-6.574,25.702-15.14,38.292-25.549,43.996c-4.844,2.652-10.086,3.809-15.718,4.091l-0.476,0.026
	c-1.848,0.077-3.732,0.067-5.663-0.026c-17.285-0.824-37.857-7.306-61.389-4.055l0,0h-0.005c-1.9,0.261-3.814,0.589-5.75,0.988
	l-0.2,0.036c-1.792,0.374-3.599,0.814-5.422,1.316l-0.671,0.169c-1.669,0.471-3.359,1.029-5.053,1.623l-1.106,0.369
	c-2.002,0.732-4.024,1.546-6.067,2.458l-0.118,0.046l-0.015,0.005c-2.381,1.07-4.588,2.304-6.712,3.61
	c-0.568,0.348-1.111,0.717-1.659,1.08c-1.674,1.106-3.272,2.263-4.792,3.482l-1.06,0.845c-10.168,8.525-16.717,19.195-20.669,27.566
	l-0.379,0.788c-0.343,0.737-0.645,1.428-0.942,2.125l-0.456,1.055c-0.246,0.584-0.471,1.137-0.686,1.679
	c-3.036-1.915-7.035-1.695-9.682,0.952c-3.072,3.072-3.072,8.049,0,11.121l1.428,1.428l-4.209,6.912l0.988,0.983L131.2,345.948
	l-0.988,1.956l-26.399,52.367l96.645,96.369h0.256h3.779h3.855l0.246-0.133l-0.067,0.133H486.4c14.136,0,25.6-11.464,25.6-25.6
	V205.665z"/>
<path style="fill:#C8DE30;" d="M215.726,182.226c0,0,9.001-36.224,40.059-50.181c64.415-28.948,110.541,37.478,133.187-51.041
	c15.642,26.798,36.285,73.18-5.084,94.464c-30.956,15.928,20.987,68.756-65.654,108.739
	C265.114,231.086,215.726,182.226,215.726,182.226z"/>
<g>
	<path style="fill:#AEC700;" d="M364.109,142.633c18.509,13.041,32.64,12.667,42.588,6.17c1.193-4.572,1.567-9.354,1.362-14.228
		c-8.044,5.463-20.035,6.226-37.827-5.412c-2.304-1.51-4.562-2.872-6.799-4.168c-6.564,3.599-13.855,4.475-21.857,4.091
		C349.286,132.9,356.675,137.4,364.109,142.633z"/>
	<path style="fill:#AEC700;" d="M298.117,230.881c26.342,19.779,46.802,25.252,62.111,22.308
		c6.533-8.847,9.554-17.715,10.936-26.189c-12.989,9.329-33.254,8.791-64.824-18.181c-34.785-29.722-61.414-45.148-82.473-45.988
		c-5.069,9.047-7.404,16.747-7.977,18.811C242.176,184.827,270.305,210.002,298.117,230.881z"/>
	<path style="fill:#AEC700;" d="M231.419,151.552c33.157-25.492,65.485,4.992,97.981,27.884
		c16.666,11.74,31.037,16.435,43.177,16.343c0.599-8.842,2.857-15.959,11.31-20.311l0.599-0.364
		c-11.597,2.888-26.527-0.727-45.624-16.492c-23.04-19.016-42.194-30.269-58.685-33.572c-7.813,1.08-15.939,3.21-24.392,7.004
		C245.299,136.755,237.379,144.015,231.419,151.552z"/>
</g>
<polygon style="fill:#FBD800;" points="214.615,180.48 103.813,400.276 318.285,284.155 "/>
<g>
	<polygon style="fill:#EFB300;" points="311.122,288.737 210.171,187.786 205.962,194.698 304.435,293.018 	"/>
	<polygon style="fill:#EFB300;" points="170.89,276.229 188.308,276.229 188.308,293.652 193.464,293.652 193.464,271.073 
		170.89,271.073 	"/>
	<polygon style="fill:#EFB300;" points="199.936,276.229 217.359,276.229 217.359,293.652 222.515,293.652 222.515,271.073 
		199.936,271.073 	"/>
	<polygon style="fill:#EFB300;" points="199.936,242.022 199.936,247.178 217.359,247.178 217.359,264.602 222.515,264.602 
		222.515,242.022 	"/>
	<polygon style="fill:#EFB300;" points="275.456,293.652 280.612,293.652 280.612,271.073 258.038,271.073 258.038,276.229 
		275.456,276.229 	"/>
	<polygon style="fill:#EFB300;" points="251.566,293.652 251.566,271.073 228.987,271.073 228.987,276.229 246.41,276.229 
		246.41,293.652 	"/>
	<polygon style="fill:#EFB300;" points="217.359,322.698 222.515,322.698 222.515,300.124 199.936,300.124 199.936,305.28 
		217.359,305.28 	"/>
	<polygon style="fill:#EFB300;" points="125.01,358.221 122.414,363.377 130.212,363.377 130.212,380.8 135.368,380.8 
		135.368,358.221 	"/>
	<polygon style="fill:#EFB300;" points="112.788,387.272 112.788,392.428 118.308,392.428 127.831,387.272 	"/>
	<polygon style="fill:#EFB300;" points="217.359,218.132 217.359,235.551 222.515,235.551 222.515,212.977 199.936,212.977 
		199.936,218.132 	"/>
	<polygon style="fill:#EFB300;" points="103.813,400.276 106.317,398.92 106.317,395.3 	"/>
	<polygon style="fill:#EFB300;" points="164.419,351.749 164.419,329.175 141.839,329.175 141.839,334.326 159.263,334.331 
		159.263,351.749 	"/>
	<polygon style="fill:#EFB300;" points="251.566,264.602 251.566,242.022 228.987,242.022 228.987,247.178 246.41,247.178 
		246.41,264.602 	"/>
	<polygon style="fill:#EFB300;" points="193.464,322.698 193.464,300.124 170.89,300.124 170.89,305.28 188.308,305.28 
		188.308,322.698 	"/>
	<polygon style="fill:#EFB300;" points="159.263,305.28 159.263,322.698 164.419,322.698 164.419,300.124 154.301,300.124 
		151.7,305.28 	"/>
	<polygon style="fill:#EFB300;" points="188.308,235.551 193.464,235.551 193.464,222.428 188.308,232.658 	"/>
	<polygon style="fill:#EFB300;" points="228.987,300.124 228.987,305.28 246.41,305.28 246.41,322.698 247.091,322.698 
		251.566,320.276 251.566,300.124 	"/>
	<polygon style="fill:#EFB300;" points="170.89,329.175 170.89,334.326 188.308,334.326 188.308,351.749 193.439,351.749 
		193.464,351.734 193.464,329.175 	"/>
	<polygon style="fill:#EFB300;" points="222.515,329.17 199.936,329.175 199.936,334.326 217.359,334.326 217.359,338.801 
		222.515,336.005 	"/>
	<polygon style="fill:#EFB300;" points="287.089,300.124 287.089,301.046 288.794,300.124 	"/>
	<polygon style="fill:#EFB300;" points="280.612,300.124 258.038,300.124 258.038,305.28 275.456,305.28 275.456,307.343 
		280.612,304.553 	"/>
	<polygon style="fill:#EFB300;" points="228.987,329.175 228.987,332.503 235.136,329.175 	"/>
	<polygon style="fill:#EFB300;" points="164.419,293.652 164.419,280.054 159.263,290.284 159.263,293.652 	"/>
	<polygon style="fill:#EFB300;" points="170.89,358.221 170.89,363.377 171.96,363.377 181.484,358.221 	"/>
	<polygon style="fill:#EFB300;" points="188.308,247.178 188.308,264.602 193.464,264.602 193.464,242.022 183.588,242.022 
		180.987,247.178 	"/>
	<polygon style="fill:#EFB300;" points="135.368,351.749 135.368,337.679 130.212,347.904 130.212,351.749 	"/>
	<polygon style="fill:#EFB300;" points="141.839,358.221 141.839,363.377 159.263,363.377 159.263,370.253 164.419,367.462 
		164.419,358.221 	"/>
</g>
<path style="fill:#FBD800;" d="M312.412,290.028l-103.675-103.67c-3.072-3.072-3.072-8.049,0-11.121s8.049-3.072,11.121,0
	l103.675,103.675c3.072,3.072,3.072,8.049,0,11.121C320.461,293.1,315.484,293.1,312.412,290.028z"/>
<g>
</g>
<g>
</g>
<g>
</g>
<g>
</g>
<g>
</g>
<g>
</g>
<g>
</g>
<g>
</g>
<g>
</g>
<g>
</g>
<g>
</g>
<g>
</g>
<g>
</g>
<g>
</g>
<g>
</g>
</svg>
