<svg width="74" height="75" viewBox="0 0 74 75" fill="none" xmlns="http://www.w3.org/2000/svg">
<path d="M0 31.25L37.569 0L74 31.25L62.3519 75H12.2172L0 31.25Z" fill="#099C0F"/>
<path d="M6 33.25L37.4768 7L68 33.25L58.2407 70H16.236L6 33.25Z" fill="white"/>
<path d="M17.768 35.4458L16.0156 36.8967L16.6301 39.0872L22.1847 58.8857L22.9014 61.4402H25.5546H48.3484H51.0352L51.7295 58.8446L57.0253 39.0462L57.5958 36.9135L55.9168 35.48L39.3535 21.3382L37.1155 19.4274L34.8488 21.3041L17.768 35.4458Z" fill="white"/>
<path d="M17.768 35.4458L16.0156 36.8967L16.6301 39.0872L22.1847 58.8857L22.9014 61.4402H25.5546H48.3484H51.0352L51.7295 58.8446L57.0253 39.0462L57.5958 36.9135L55.9168 35.48L39.3535 21.3382L37.1155 19.4274L34.8488 21.3041L17.768 35.4458Z" stroke="#0A0909" stroke-width="7"/>
<path d="M17.768 35.4458L16.0156 36.8967L16.6301 39.0872L22.1847 58.8857L22.9014 61.4402H25.5546H48.3484H51.0352L51.7295 58.8446L57.0253 39.0462L57.5958 36.9135L55.9168 35.48L39.3535 21.3382L37.1155 19.4274L34.8488 21.3041L17.768 35.4458Z" stroke="#FA0E0E" stroke-width="7"/>
<path d="M30.5661 35H33.8261C34.9594 35 35.7861 35.2667 36.3061 35.8C36.8261 36.32 37.0861 37.1267 37.0861 38.22V39.08C37.0861 40.5333 36.6061 41.4533 35.6461 41.84V41.88C36.1794 42.04 36.5528 42.3667 36.7661 42.86C36.9928 43.3533 37.1061 44.0133 37.1061 44.84V47.3C37.1061 47.7 37.1194 48.0267 37.1461 48.28C37.1728 48.52 37.2394 48.76 37.3461 49H35.1061C35.0261 48.7733 34.9728 48.56 34.9461 48.36C34.9194 48.16 34.9061 47.8 34.9061 47.28V44.72C34.9061 44.08 34.7994 43.6333 34.5861 43.38C34.3861 43.1267 34.0328 43 33.5261 43H32.7661V49H30.5661V35ZM33.5661 41C34.0061 41 34.3328 40.8867 34.5461 40.66C34.7728 40.4333 34.8861 40.0533 34.8861 39.52V38.44C34.8861 37.9333 34.7928 37.5667 34.6061 37.34C34.4328 37.1133 34.1528 37 33.7661 37H32.7661V41H33.5661ZM41.4925 49.2C40.4258 49.2 39.6192 48.9 39.0725 48.3C38.5258 47.6867 38.2525 46.8133 38.2525 45.68V44.88H40.3325V45.84C40.3325 46.7467 40.7125 47.2 41.4725 47.2C41.8458 47.2 42.1258 47.0933 42.3125 46.88C42.5125 46.6533 42.6125 46.2933 42.6125 45.8C42.6125 45.2133 42.4792 44.7 42.2125 44.26C41.9458 43.8067 41.4525 43.2667 40.7325 42.64C39.8258 41.84 39.1925 41.12 38.8325 40.48C38.4725 39.8267 38.2925 39.0933 38.2925 38.28C38.2925 37.1733 38.5725 36.32 39.1325 35.72C39.6925 35.1067 40.5058 34.8 41.5725 34.8C42.6258 34.8 43.4192 35.1067 43.9525 35.72C44.4992 36.32 44.7725 37.1867 44.7725 38.32V38.9H42.6925V38.18C42.6925 37.7 42.5992 37.3533 42.4125 37.14C42.2258 36.9133 41.9525 36.8 41.5925 36.8C40.8592 36.8 40.4925 37.2467 40.4925 38.14C40.4925 38.6467 40.6258 39.12 40.8925 39.56C41.1725 40 41.6725 40.5333 42.3925 41.16C43.3125 41.96 43.9458 42.6867 44.2925 43.34C44.6392 43.9933 44.8125 44.76 44.8125 45.64C44.8125 46.7867 44.5258 47.6667 43.9525 48.28C43.3925 48.8933 42.5725 49.2 41.4925 49.2Z" fill="#171717"/>
</svg>
