<?xml version="1.0" encoding="iso-8859-1"?>
<!-- Generator: Adobe Illustrator 18.1.1, SVG Export Plug-In . SVG Version: 6.00 Build 0)  -->
<svg version="1.1" id="Capa_1" xmlns="http://www.w3.org/2000/svg" xmlns:xlink="http://www.w3.org/1999/xlink" x="0px" y="0px"
	 viewBox="0 0 136.547 136.547" style="enable-background:new 0 0 136.547 136.547;" xml:space="preserve">
<g>
	<g>
		<path style="fill:#010002;" d="M28.327,37.342h-0.365c-0.523,0-0.984-0.161-1.392-0.469c-0.408-0.315-0.608-0.909-0.608-1.797
			v-9.799l10.425,12.837h0.387V25.277c0-0.727,0.061-1.245,0.186-1.546c0.125-0.293,0.301-0.515,0.523-0.648
			c0.222-0.132,0.662-0.24,1.313-0.326v-0.419h-5.096v0.419c0.855-0.014,1.467,0.197,1.832,0.637
			c0.265,0.326,0.397,0.952,0.397,1.872v6.635l-7.609-9.563h-5.465v0.419c0.469,0.014,0.827,0.082,1.081,0.218
			c0.247,0.129,0.537,0.397,0.863,0.812l0.329,0.404v10.883c0,0.82-0.165,1.399-0.501,1.736c-0.333,0.347-0.927,0.515-1.772,0.523
			v0.419h5.465v-0.412C28.319,37.342,28.327,37.342,28.327,37.342z"/>
		<path style="fill:#010002;" d="M53.132,32.861h-0.419c-0.376,1.364-1.002,2.376-1.868,3.049c-0.87,0.673-2.022,0.999-3.464,0.999
			h-0.92c-0.44,0-0.759-0.064-0.959-0.183c-0.197-0.125-0.329-0.279-0.401-0.469c-0.075-0.193-0.107-0.705-0.107-1.56v-4.348
			c0.734,0,1.296,0.097,1.686,0.293c0.383,0.193,0.723,0.565,1.016,1.127c0.29,0.558,0.483,1.278,0.573,2.162h0.433v-8.067h-0.433
			c-0.122,1.195-0.401,2.104-0.841,2.72c-0.44,0.612-1.145,0.92-2.126,0.92h-0.308v-6.277h1.589c1.167,0,1.965,0.075,2.391,0.208
			c0.727,0.225,1.288,0.583,1.689,1.07c0.401,0.49,0.705,1.281,0.927,2.398h0.433V22.35H39.117v0.419h0.515
			c0.501,0,0.891,0.1,1.181,0.319c0.204,0.143,0.347,0.351,0.419,0.616c0.039,0.157,0.057,0.587,0.057,1.278v10.142
			c0,0.777-0.039,1.256-0.122,1.432c-0.107,0.258-0.258,0.44-0.455,0.544c-0.272,0.161-0.637,0.236-1.081,0.236h-0.515v0.419h13.328
			L53.132,32.861z"/>
		<path style="fill:#010002;" d="M55.798,25.532l5.071,12.59h0.422l4.205-9.935l3.819,9.935h0.444l4.835-12.73
			c0.433-1.084,0.673-1.671,0.716-1.761c0.15-0.276,0.326-0.49,0.523-0.623c0.2-0.14,0.44-0.218,0.727-0.236v-0.419h-3.998v0.419
			c0.598,0.014,0.998,0.111,1.217,0.29c0.211,0.179,0.319,0.422,0.319,0.73c0,0.218-0.032,0.447-0.086,0.691
			c-0.068,0.251-0.222,0.716-0.494,1.399l-2.512,6.614l-2.809-7.301c-0.34-0.895-0.512-1.428-0.512-1.603
			c0-0.154,0.047-0.301,0.136-0.426c0.089-0.125,0.218-0.215,0.372-0.265c0.225-0.075,0.605-0.115,1.124-0.122v-0.419h-7.469v0.419
			c0.48,0,0.837,0.068,1.088,0.193c0.243,0.129,0.465,0.344,0.655,0.644c0.19,0.301,0.458,0.902,0.809,1.789l0.637,1.643
			l-2.423,5.844l-3.024-7.487c-0.372-0.931-0.558-1.542-0.558-1.829c0-0.222,0.089-0.401,0.268-0.548
			c0.179-0.147,0.533-0.229,1.074-0.243v-0.429h-6.685v0.419c0.487,0.047,0.83,0.2,1.034,0.465
			C54.925,23.495,55.283,24.261,55.798,25.532z"/>
		<path style="fill:#010002;" d="M78.227,37.42c0.222-0.15,0.426-0.222,0.626-0.222c0.233,0,0.533,0.075,0.898,0.222
			c0.651,0.272,1.192,0.462,1.625,0.558c0.433,0.097,0.891,0.147,1.378,0.147c1.55,0,2.82-0.469,3.822-1.392
			c1.002-0.934,1.507-2.036,1.507-3.332c0-1.016-0.311-1.918-0.93-2.706c-0.63-0.791-1.854-1.625-3.654-2.512
			c-1.285-0.637-2.112-1.081-2.466-1.331c-0.483-0.351-0.83-0.694-1.056-1.056c-0.161-0.261-0.233-0.569-0.233-0.913
			c0-0.537,0.222-1.013,0.673-1.424c0.447-0.408,1.063-0.616,1.84-0.616c0.998,0,1.929,0.387,2.788,1.17
			c0.855,0.787,1.403,1.829,1.621,3.11h0.462l-0.125-5.143h-0.336c-0.097,0.462-0.208,0.755-0.319,0.873
			c-0.115,0.125-0.268,0.183-0.469,0.183c-0.208,0-0.562-0.118-1.074-0.369c-0.519-0.247-0.952-0.415-1.303-0.508
			c-0.469-0.122-0.956-0.183-1.449-0.183c-1.378,0-2.509,0.426-3.411,1.292c-0.902,0.863-1.356,1.908-1.356,3.139
			c0,0.719,0.168,1.378,0.497,1.979c0.333,0.601,0.805,1.138,1.417,1.628c0.616,0.487,1.618,1.07,3.028,1.761
			c0.998,0.49,1.7,0.888,2.09,1.195c0.39,0.308,0.684,0.637,0.88,0.97c0.197,0.344,0.286,0.691,0.286,1.059
			c0,0.616-0.247,1.149-0.755,1.614c-0.505,0.462-1.181,0.687-2.026,0.687c-1.099,0-2.126-0.426-3.074-1.285
			c-0.948-0.859-1.593-2.112-1.925-3.747h-0.415v5.823h0.415C77.829,37.803,78.012,37.574,78.227,37.42z"/>
		<rect x="10.139" y="42.03" style="fill:#010002;" width="90.667" height="3.579"/>
		<rect x="28.928" y="51.872" style="fill:#010002;" width="24.333" height="3.579"/>
		<rect x="28.928" y="61.71" style="fill:#010002;" width="24.333" height="3.579"/>
		<rect x="10.264" y="71.552" style="fill:#010002;" width="42.996" height="3.579"/>
		<path style="fill:#010002;" d="M18.997,66.388h-0.29v0.397h7.065v-0.397c-0.444-0.036-0.791-0.161-1.031-0.379
			c-0.326-0.293-0.741-1.006-1.242-2.151l-5.268-11.971h-0.204l-5.222,11.649c-0.497,1.113-0.916,1.847-1.253,2.201
			c-0.336,0.358-0.769,0.573-1.292,0.651v0.397h4.857v-0.397c-0.762-0.057-1.238-0.14-1.432-0.258
			c-0.329-0.19-0.497-0.497-0.497-0.902c0-0.308,0.104-0.694,0.304-1.174l0.612-1.417h5.157l0.777,1.822
			c0.204,0.476,0.308,0.741,0.322,0.812c0.043,0.132,0.068,0.265,0.068,0.39c0,0.218-0.079,0.379-0.236,0.497
			C19.966,66.309,19.569,66.388,18.997,66.388z M14.487,61.835l2.24-5.032l2.176,5.032H14.487z"/>
		<path style="fill:#010002;" d="M110.944,53.536V12.805H0v75.152h64.813c0.043,19.741,16.112,35.785,35.864,35.785
			c3.328,0,6.535-0.494,9.591-1.342l0.075,0.047c0.021-0.025,0.036-0.054,0.05-0.075c15.063-4.248,26.154-18.088,26.154-34.493
			C136.54,71.674,125.732,57.963,110.944,53.536z M132.969,86.139h-12.927c-0.125-3.851-0.551-7.648-1.338-11.32h11.578
			C131.831,78.32,132.757,82.131,132.969,86.139z M128.463,71.334h-10.611c-1.296-4.774-3.131-9.341-5.508-13.632
			C119.122,60.336,124.78,65.174,128.463,71.334z M68.553,84.379c0.351-3.246,1.152-6.352,2.394-9.248
			c0.047-0.097,0.075-0.211,0.122-0.311h11.388c-0.021,0.1-0.029,0.215-0.047,0.311c-0.576,3.024-0.895,6.116-1.031,9.248
			c-0.029,0.591-0.097,1.17-0.107,1.761H68.378C68.41,85.545,68.492,84.965,68.553,84.379z M81.83,61.71
			c2.022-1.467,4.166-2.781,6.51-3.758c-0.637,1.217-1.134,2.498-1.693,3.758c-0.523,1.185-1.056,2.358-1.5,3.579
			c-0.723,1.986-1.389,3.99-1.911,6.045H72.883c1.331-2.222,2.988-4.209,4.792-6.045C78.96,63.979,80.345,62.787,81.83,61.71z
			 M88.863,65.289c0.472-1.213,0.988-2.405,1.542-3.579c0.855-1.814,1.775-3.597,2.817-5.311c1.854-0.433,3.761-0.705,5.719-0.816
			v6.127v3.579v6.045H86.834C87.392,69.272,88.09,67.265,88.863,65.289z M84.869,84.379c0.14-3.135,0.469-6.234,1.07-9.248
			c0.021-0.097,0.029-0.211,0.05-0.311h12.952v0.311v9.248v1.761H84.758C84.762,85.549,84.837,84.969,84.869,84.379z
			 M102.412,84.379v-9.559h4.953h3.579h4.212c0.82,3.665,1.27,7.458,1.414,11.32h-5.619h-8.536v-1.761H102.412z M116.599,89.622
			c-0.075,3.851-0.476,7.648-1.231,11.32h-12.955v-11.32C102.412,89.622,116.599,89.622,116.599,89.622z M114.255,71.334h-3.31
			h-3.579h-4.953V55.583c1.693,0.093,3.35,0.279,4.953,0.619c0.004,0.004,0.011,0.004,0.018,0.004
			c1.331,2.069,2.505,4.241,3.561,6.463C112.265,65.457,113.385,68.349,114.255,71.334z M3.579,16.384h103.787v36.29
			c-2.169-0.412-4.398-0.655-6.685-0.655v-0.147H57.684v3.579h27.772c-3.403,1.6-6.514,3.722-9.233,6.259H57.684v3.579h15.21
			c-1.571,1.933-2.96,4.026-4.109,6.263H57.684v3.579h9.502c-1.117,2.92-1.872,6.02-2.19,9.248H3.579V16.384z M68.378,89.622h12.934
			c0.125,3.851,0.548,7.648,1.335,11.32H71.072C69.523,97.441,68.596,93.63,68.378,89.622z M72.887,104.427h10.615
			c1.296,4.774,3.128,9.341,5.504,13.632C82.224,115.425,76.57,110.586,72.887,104.427z M98.937,120.178
			c-1.693-0.093-3.357-0.279-4.971-0.623c-3.006-4.667-5.318-9.756-6.875-15.135h11.846V120.178z M98.937,100.941H86.193
			c-0.82-3.665-1.27-7.458-1.414-11.32h14.147v11.32H98.937z M108.131,119.362c-1.85,0.433-3.761,0.705-5.719,0.816v-15.751h12.107
			C113.085,109.713,110.948,114.727,108.131,119.362z M113.009,117.809c2.208-4.223,3.912-8.722,5.1-13.381h10.357
			C124.898,110.39,119.494,115.124,113.009,117.809z M130.281,100.941h-11.388c0.719-3.686,1.117-7.473,1.188-11.32h12.891
			C132.757,93.63,131.831,97.441,130.281,100.941z"/>
	</g>
</g>
<g>
</g>
<g>
</g>
<g>
</g>
<g>
</g>
<g>
</g>
<g>
</g>
<g>
</g>
<g>
</g>
<g>
</g>
<g>
</g>
<g>
</g>
<g>
</g>
<g>
</g>
<g>
</g>
<g>
</g>
</svg>
